#!OML:ASF F:\VICON\USERDATA\INSTALL\rory3\rory3.ASF
:FULLY-SPECIFIED
:DEGREES
36
root -0.4160625969003878 17.362613985728235 -5.030280329132635 3.8481136733917154 4.668310638484857 0.7211157591147557
lfemur -17.842693664814323 -2.299741810427685 -26.27541444383463
ltibia 40.76915486537374
lfoot -0.7227264777916503 -9.338362818416439
ltoes -8.744134353820568
rfemur -16.673197371096386 -3.2960991680749743 22.47477172308614
rtibia 83.75836392858
rfoot 12.97669033870715 -14.884243166003372
rtoes 24.265160856297477
lowerback 16.528791267221163 0.9358814708993017 -1.6989590562879395
upperback -0.6458194347968833 0.8253087313555756 -1.0449283163946192
thorax -9.014822424914474 0.40089233616360687 0.2288914906653926
lowerneck -20.520584802123324 -4.37576527769191 -1.7606781932556543
upperneck 12.2093532584161 -6.276703575719626 3.984644267138285
head 7.321061882295558 -2.6988940568467346 0.9957989456865134
lclavicle 7.933867044557652e-17 -3.5106937242220083e-16
lhumerus -47.8090068242658 -16.829688387264174 97.24965486093026
lradius 99.31702840877534
lwrist 32.30571977512374
lhand -25.267841529447235 1.5350641587172789
lfingers 7.12502
lthumb 1.2985302366814775 31.036307445429706
rclavicle 7.933867069688359e-17 -3.5106937223302395e-16
rhumerus -47.77415813669794 11.727813446581985 -100.57749919477098
rradius 111.06227688506397
rwrist -9.14632736874396
rhand -15.79769979102656 38.30589553182346
rfingers 7.12502
rthumb 9.582047658911026 8.558584823886317
37
root -0.41487764055675114 17.2916562263697 -4.022978719356567 3.7898472642493197 4.563608867833864 0.9124201655875139
lfemur -16.3077698567351 -2.3833954397596715 -26.521553606229716
ltibia 41.55550648309128
lfoot -2.3582751101035795 -8.717357918026902
ltoes -6.523172101402988
rfemur -19.90656333386993 -4.1768721245229585 21.769975509835326
rtibia 85.51081485443271
rfoot 11.780672783845208 -14.295494090210148
rtoes 25.113350906552768
lowerback 16.659251050087228 0.7762537452958391 -2.1200413447394917
upperback -0.554918788015021 0.5406949276667035 -0.9877235976360035
thorax -9.13360945516784 0.27921130977893316 0.5718605204051593
lowerneck -20.92703952681653 -4.346143411333663 -1.6843964720663271
upperneck 12.285901915594954 -6.210549906394006 4.00584207963567
head 7.406197246247095 -2.662131683548954 0.9909876641519431
lclavicle 7.933867044550071e-17 -3.5106937242137203e-16
lhumerus -45.93935201821782 -17.75046779868146 97.17808846007487
lradius 99.48651401769693
lwrist 32.42928872902699
lhand -25.474814323365425 1.5938024842545735
lfingers 7.12502
lthumb 1.2681188483642951 31.29805475601199
rclavicle 7.933867068952349e-17 -3.5106937223778024e-16
rhumerus -48.10721091469715 11.45190424451023 -100.8775014229846
rradius 110.29159149221184
rwrist -9.147134587763379
rhand -15.886504113623714 38.24650002120734
rfingers 7.12502
rthumb 9.562809954410952 8.517201463169416
38
root -0.42044692679711454 17.271599657978353 -3.335412480489774 3.8387753553205965 4.299244636729687 0.926796953735558
lfemur -14.810744538220534 -2.365828310584096 -26.578987404314407
ltibia 42.16804840010712
lfoot -3.907650525955312 -7.963020769387661
ltoes -5.425958179361502
rfemur -23.139890734985222 -4.765677607467004 21.346336232849513
rtibia 86.7455988832566
rfoot 10.827791950359117 -13.514577511924028
rtoes 24.440376146671976
lowerback 16.697933888513646 0.6629640935943948 -2.360524923194617
upperback -0.4760847427224164 0.3731577086947506 -0.8611784205659101
thorax -9.231424174513743 0.23146388165345239 0.9289220790161938
lowerneck -21.256910778035877 -4.288123786352868 -1.6372425753202215
upperneck 12.41702742017851 -6.141487456925729 4.012775420138137
head 7.4933368540289 -2.606919805367469 0.9885357907041028
lclavicle 7.933867045317669e-17 -3.5106937241523307e-16
lhumerus -44.1828706118702 -18.47614895157958 97.04409485468102
lradius 99.82900739312316
lwrist 32.4844495940539
lhand -25.61515951601496 1.6159560294540558
lfingers 7.12502
lthumb 1.3212587865910055 31.541841113158473
rclavicle 7.933867068840365e-17 -3.5106937223849366e-16
rhumerus -48.462651018438116 11.160854484086084 -101.10930516530539
rradius 109.48759103252799
rwrist -9.20485905302825
rhand -16.04217643902853 38.272911863833826
rfingers 7.12502
rthumb 9.500938532424692 8.598731074483181
39
root -0.4440250804905074 17.224508346430977 -2.783293317947413 3.873965162314606 3.6444109005767444 0.8110465856977784
lfemur -13.316899612700178 -2.0520901404465306 -26.503193523817227
ltibia 42.5941924610469
lfoot -5.516525618691742 -7.010553476603524
ltoes -5.925109043980055
rfemur -26.23517472762401 -4.756241672239305 21.380384038862417
rtibia 87.65246634010252
rfoot 10.203850085189927 -12.642068794272689
rtoes 23.423476201914955
lowerback 16.71557190150075 0.6776681623844988 -2.6129649015815963
upperback -0.45255414911918657 0.374849939833652 -0.6679275904408184
thorax -9.373271247739032 0.24908319653879202 1.1978145269598235
lowerneck -21.496618548069225 -4.23202420016435 -1.6567033607514277
upperneck 12.441822806891286 -6.071408439311254 4.027063802683088
head 7.5147096589160265 -2.554060233688517 1.0204434169773378
lclavicle 7.93386704337026e-17 -3.510693724284758e-16
lhumerus -42.678038592942 -18.95174502065897 96.91730990103324
lradius 100.39010156628927
lwrist 32.498009851171325
lhand -25.730722305744187 1.7456481470497187
lfingers 7.12502
lthumb 1.395597550406456 31.856228928695394
rclavicle 7.933867068046168e-17 -3.5106937224266866e-16
rhumerus -48.872447203365695 10.856626647194632 -101.2746152283257
rradius 108.68043940926346
rwrist -9.307572063790719
rhand -16.174212366029728 38.33337450265277
rfingers 7.12502
rthumb 9.406432789950923 8.67806082653372
